<mxfile host="app.diagrams.net" agent="Mozilla/5.0 (Macintosh; Intel Mac OS X 10_15_7) AppleWebKit/537.36 (KHTML, like Gecko) Chrome/137.0.0.0 Safari/537.36" version="28.0.7">
  <diagram name="ページ1" id="-VSFPq-BabgFPZNjZor0">
    <mxGraphModel dx="1210" dy="971" grid="1" gridSize="10" guides="1" tooltips="1" connect="1" arrows="1" fold="1" page="1" pageScale="1" pageWidth="827" pageHeight="1169" math="0" shadow="0">
      <root>
        <mxCell id="0" />
        <mxCell id="1" parent="0" />
        <mxCell id="OdZD1B_WJsaDZ_2SuXU--1" value="Application" style="whiteSpace=wrap;strokeWidth=2;" vertex="1" parent="1">
          <mxGeometry x="20" y="276" width="684" height="358" as="geometry" />
        </mxCell>
        <mxCell id="OdZD1B_WJsaDZ_2SuXU--2" value="Browser" style="whiteSpace=wrap;strokeWidth=2;" vertex="1" parent="1">
          <mxGeometry x="724" y="20" width="626" height="767" as="geometry" />
        </mxCell>
        <mxCell id="OdZD1B_WJsaDZ_2SuXU--3" value="Request: /" style="whiteSpace=wrap;strokeWidth=2;" vertex="1" parent="1">
          <mxGeometry x="971" y="45" width="136" height="54" as="geometry" />
        </mxCell>
        <mxCell id="OdZD1B_WJsaDZ_2SuXU--4" value="main.go (Router)" style="whiteSpace=wrap;strokeWidth=2;" vertex="1" parent="1">
          <mxGeometry x="1074" y="149" width="181" height="54" as="geometry" />
        </mxCell>
        <mxCell id="OdZD1B_WJsaDZ_2SuXU--5" value="Request: /customers/new" style="whiteSpace=wrap;strokeWidth=2;" vertex="1" parent="1">
          <mxGeometry x="759" y="696" width="246" height="54" as="geometry" />
        </mxCell>
        <mxCell id="OdZD1B_WJsaDZ_2SuXU--6" value="Request: /customers/edit/1" style="whiteSpace=wrap;strokeWidth=2;" vertex="1" parent="1">
          <mxGeometry x="1055" y="684" width="260" height="78" as="geometry" />
        </mxCell>
        <mxCell id="OdZD1B_WJsaDZ_2SuXU--7" value="handlers" style="whiteSpace=wrap;strokeWidth=2;" vertex="1" parent="1">
          <mxGeometry x="293" y="301" width="121" height="54" as="geometry" />
        </mxCell>
        <mxCell id="OdZD1B_WJsaDZ_2SuXU--8" value="database.go (GORM)" style="whiteSpace=wrap;strokeWidth=2;" vertex="1" parent="1">
          <mxGeometry x="141" y="428" width="206" height="54" as="geometry" />
        </mxCell>
        <mxCell id="OdZD1B_WJsaDZ_2SuXU--9" value="models/customer.go" style="whiteSpace=wrap;strokeWidth=2;" vertex="1" parent="1">
          <mxGeometry x="55" y="555" width="206" height="54" as="geometry" />
        </mxCell>
        <mxCell id="OdZD1B_WJsaDZ_2SuXU--10" value="(customers.db)" style="whiteSpace=wrap;strokeWidth=2;" vertex="1" parent="1">
          <mxGeometry x="311" y="555" width="168" height="54" as="geometry" />
        </mxCell>
        <mxCell id="OdZD1B_WJsaDZ_2SuXU--11" value="templates" style="whiteSpace=wrap;strokeWidth=2;" vertex="1" parent="1">
          <mxGeometry x="537" y="428" width="132" height="54" as="geometry" />
        </mxCell>
        <mxCell id="OdZD1B_WJsaDZ_2SuXU--12" value="Response" style="whiteSpace=wrap;strokeWidth=2;" vertex="1" parent="1">
          <mxGeometry x="540" y="555" width="125" height="54" as="geometry" />
        </mxCell>
        <mxCell id="OdZD1B_WJsaDZ_2SuXU--13" value="" style="curved=1;startArrow=none;endArrow=block;exitX=0.98;exitY=1;entryX=0.5;entryY=0;rounded=0;" edge="1" parent="1" source="OdZD1B_WJsaDZ_2SuXU--3" target="OdZD1B_WJsaDZ_2SuXU--4">
          <mxGeometry relative="1" as="geometry">
            <Array as="points">
              <mxPoint x="1165" y="124" />
            </Array>
          </mxGeometry>
        </mxCell>
        <mxCell id="OdZD1B_WJsaDZ_2SuXU--14" value="" style="curved=1;startArrow=none;endArrow=block;exitX=0.74;exitY=0;entryX=0.17;entryY=1;rounded=0;" edge="1" parent="1" source="OdZD1B_WJsaDZ_2SuXU--5" target="OdZD1B_WJsaDZ_2SuXU--4">
          <mxGeometry relative="1" as="geometry">
            <Array as="points">
              <mxPoint x="1023" y="659" />
              <mxPoint x="1023" y="240" />
            </Array>
          </mxGeometry>
        </mxCell>
        <mxCell id="OdZD1B_WJsaDZ_2SuXU--15" value="" style="curved=1;startArrow=none;endArrow=block;exitX=0.67;exitY=0;entryX=0.72;entryY=1;rounded=0;" edge="1" parent="1" source="OdZD1B_WJsaDZ_2SuXU--6" target="OdZD1B_WJsaDZ_2SuXU--4">
          <mxGeometry relative="1" as="geometry">
            <Array as="points">
              <mxPoint x="1257" y="659" />
              <mxPoint x="1257" y="240" />
            </Array>
          </mxGeometry>
        </mxCell>
        <mxCell id="OdZD1B_WJsaDZ_2SuXU--16" value="Routing" style="curved=1;startArrow=none;endArrow=block;exitX=0;exitY=0.88;entryX=1;entryY=0.39;rounded=0;" edge="1" parent="1" source="OdZD1B_WJsaDZ_2SuXU--4" target="OdZD1B_WJsaDZ_2SuXU--7">
          <mxGeometry relative="1" as="geometry">
            <Array as="points">
              <mxPoint x="882" y="240" />
              <mxPoint x="882" y="276" />
            </Array>
          </mxGeometry>
        </mxCell>
        <mxCell id="OdZD1B_WJsaDZ_2SuXU--17" value="DB Operation" style="curved=1;startArrow=none;endArrow=block;exitX=0.11;exitY=1;entryX=0.5;entryY=0;rounded=0;" edge="1" parent="1" source="OdZD1B_WJsaDZ_2SuXU--7" target="OdZD1B_WJsaDZ_2SuXU--8">
          <mxGeometry relative="1" as="geometry">
            <Array as="points">
              <mxPoint x="244" y="392" />
            </Array>
          </mxGeometry>
        </mxCell>
        <mxCell id="OdZD1B_WJsaDZ_2SuXU--18" value="Defines Structure" style="curved=1;startArrow=none;endArrow=block;exitX=0.32;exitY=1;entryX=0.5;entryY=0;rounded=0;" edge="1" parent="1" source="OdZD1B_WJsaDZ_2SuXU--8" target="OdZD1B_WJsaDZ_2SuXU--9">
          <mxGeometry relative="1" as="geometry">
            <Array as="points">
              <mxPoint x="158" y="519" />
            </Array>
          </mxGeometry>
        </mxCell>
        <mxCell id="OdZD1B_WJsaDZ_2SuXU--19" value="Persistence" style="curved=1;startArrow=none;endArrow=block;exitX=0.81;exitY=1;entryX=0.5;entryY=0;rounded=0;" edge="1" parent="1" source="OdZD1B_WJsaDZ_2SuXU--8" target="OdZD1B_WJsaDZ_2SuXU--10">
          <mxGeometry relative="1" as="geometry">
            <Array as="points">
              <mxPoint x="395" y="519" />
            </Array>
          </mxGeometry>
        </mxCell>
        <mxCell id="OdZD1B_WJsaDZ_2SuXU--20" value="Render with Data" style="curved=1;startArrow=none;endArrow=block;exitX=1;exitY=0.79;entryX=0.5;entryY=0;rounded=0;" edge="1" parent="1" source="OdZD1B_WJsaDZ_2SuXU--7" target="OdZD1B_WJsaDZ_2SuXU--11">
          <mxGeometry relative="1" as="geometry">
            <Array as="points">
              <mxPoint x="603" y="392" />
            </Array>
          </mxGeometry>
        </mxCell>
        <mxCell id="OdZD1B_WJsaDZ_2SuXU--21" value="Generate HTML" style="curved=1;startArrow=none;endArrow=block;exitX=0.5;exitY=1;entryX=0.5;entryY=0;rounded=0;" edge="1" parent="1" source="OdZD1B_WJsaDZ_2SuXU--11" target="OdZD1B_WJsaDZ_2SuXU--12">
          <mxGeometry relative="1" as="geometry">
            <Array as="points" />
          </mxGeometry>
        </mxCell>
        <mxCell id="OdZD1B_WJsaDZ_2SuXU--22" value="" style="curved=1;startArrow=none;endArrow=block;exitX=1;exitY=0.28;entryX=0.09;entryY=1;rounded=0;" edge="1" parent="1" source="OdZD1B_WJsaDZ_2SuXU--12" target="OdZD1B_WJsaDZ_2SuXU--3">
          <mxGeometry relative="1" as="geometry">
            <Array as="points">
              <mxPoint x="930" y="519" />
              <mxPoint x="930" y="124" />
            </Array>
          </mxGeometry>
        </mxCell>
        <mxCell id="OdZD1B_WJsaDZ_2SuXU--23" value="" style="curved=1;startArrow=none;endArrow=block;exitX=0;exitY=0.72;entryX=0.38;entryY=0;rounded=0;" edge="1" parent="1" source="OdZD1B_WJsaDZ_2SuXU--12" target="OdZD1B_WJsaDZ_2SuXU--5">
          <mxGeometry relative="1" as="geometry">
            <Array as="points">
              <mxPoint x="326" y="634" />
              <mxPoint x="813" y="659" />
            </Array>
          </mxGeometry>
        </mxCell>
        <mxCell id="OdZD1B_WJsaDZ_2SuXU--24" value="" style="curved=1;startArrow=none;endArrow=block;exitX=0.67;exitY=1;entryX=0.17;entryY=0;rounded=0;" edge="1" parent="1" source="OdZD1B_WJsaDZ_2SuXU--12" target="OdZD1B_WJsaDZ_2SuXU--6">
          <mxGeometry relative="1" as="geometry">
            <Array as="points">
              <mxPoint x="643" y="634" />
              <mxPoint x="1043" y="659" />
            </Array>
          </mxGeometry>
        </mxCell>
      </root>
    </mxGraphModel>
  </diagram>
</mxfile>
